<svg xmlns="http://www.w3.org/2000/svg" version="1.1" xmlns:xlink="http://www.w3.org/1999/xlink" xmlns:svgjs="http://svgjs.com/svgjs" width="220.6001mm" height="221.17798mm"><svg width="220.6001mm" height="221.17798mm" viewBox="0 0 220.6001 221.17798" version="1.1" id="SvgjsSvg1040" inkscape:version="1.2.2 (b0a8486541, 2022-12-01)" sodipodi:docname="logo.svg" inkscape:export-filename="logo.png" inkscape:export-xdpi="30.370001" inkscape:export-ydpi="30.370001" xmlns:inkscape="http://www.inkscape.org/namespaces/inkscape" xmlns:sodipodi="http://sodipodi.sourceforge.net/DTD/sodipodi-0.dtd" xmlns="http://www.w3.org/2000/svg" xmlns:svg="http://www.w3.org/2000/svg">
  <sodipodi:namedview id="SvgjsSodipodi:namedview1039" pagecolor="#30753d" bordercolor="#666666" borderopacity="1.0" inkscape:showpageshadow="2" inkscape:pageopacity="0" inkscape:pagecheckerboard="0" inkscape:deskcolor="#d1d1d1" inkscape:document-units="mm" showgrid="false" showguides="false" inkscape:zoom="0.13716686" inkscape:cx="579.58604" inkscape:cy="2318.3442" inkscape:window-width="1918" inkscape:window-height="1043" inkscape:window-x="0" inkscape:window-y="35" inkscape:window-maximized="1" inkscape:current-layer="layer1"></sodipodi:namedview>
  <defs id="SvgjsDefs1038"></defs>
  <g inkscape:label="Layer 1" inkscape:groupmode="layer" id="SvgjsG1037" transform="translate(-652.48246,-935.48829)">
    <g id="SvgjsG1036">
      <circle class="red" style="fill-opacity:1;stroke-width:0.0616604;stop-color:#000000" id="SvgjsCircle1035" cx="956.87689" cy="-673.57037" r="6.3685937" transform="rotate(90)"></circle>
      <circle class="blue" style="fill-opacity:1;stroke-width:0.0616604;stop-color:#000000" id="SvgjsCircle1034" cx="956.87689" cy="-823.57037" r="6.3685937" transform="rotate(90)"></circle>
      <circle class="green" style="fill-opacity:1;stroke-width:0.0616604;stop-color:#000000" id="SvgjsCircle1033" cx="1031.8773" cy="-673.57037" r="6.3685937" transform="rotate(90)"></circle>
      <circle class="green" style="fill-opacity:1;stroke-width:0.0616604;stop-color:#000000" id="SvgjsCircle1032" cx="956.87689" cy="-748.57037" r="6.3685937" transform="rotate(90)"></circle>
      <circle class="red" style="fill-opacity:1;stroke-width:0.0616604;stop-color:#000000" id="SvgjsCircle1031" cx="1031.8773" cy="-823.57037" r="6.3685937" transform="rotate(90)"></circle>
      <circle class="blue" style="fill-opacity:1;stroke-width:0.0616604;stop-color:#000000" id="SvgjsCircle1030" cx="1106.8771" cy="-823.57037" r="6.3685937" transform="rotate(90)"></circle>
      <circle class="blue" style="fill-opacity:1;stroke-width:0.0616604;stop-color:#000000" id="SvgjsCircle1029" cx="1031.8773" cy="-748.57037" r="6.3685937" transform="rotate(90)"></circle>
      <circle class="red" style="fill-opacity:1;stroke-width:0.0616604;stop-color:#000000" id="SvgjsCircle1028" cx="1106.8771" cy="-673.57037" r="6.3685937" transform="rotate(90)"></circle>
      <circle class="green" style="fill-opacity:1;stroke-width:0.0616604;stop-color:#000000" id="SvgjsCircle1027" cx="1106.8771" cy="-748.57037" r="6.3685937" transform="rotate(90)"></circle>
      <path class="red" style="fill:none;stroke-width:5;stroke-linecap:round;stroke-linejoin:miter;stroke-dasharray:none;stroke-opacity:1" d="m 654.98248,971.1672 c 30.44905,0.0794 32.99091,-3.06559 32.80254,-33.1789" id="SvgjsPath1026" sodipodi:nodetypes="cc"></path>
      <path class="red" style="fill:none;stroke-width:5;stroke-linecap:round;stroke-linejoin:miter;stroke-dasharray:none;stroke-opacity:1" d="m 720.58257,970.98556 c -30.44903,-0.0794 -32.9909,3.06559 -32.80253,33.17914" id="SvgjsPath1025" sodipodi:nodetypes="cc"></path>
      <path class="blue" style="fill:none;stroke-width:5;stroke-linecap:round;stroke-linejoin:miter;stroke-dasharray:none;stroke-opacity:1" d="m 804.98248,971.1672 c 30.44905,0.0794 32.99091,-3.06559 32.80254,-33.1789" id="SvgjsPath1024" sodipodi:nodetypes="cc"></path>
      <path class="blue" style="fill:none;stroke-width:5;stroke-linecap:round;stroke-linejoin:miter;stroke-dasharray:none;stroke-opacity:1" d="m 870.58257,970.98556 c -30.44903,-0.0794 -32.9909,3.06559 -32.80253,33.17914" id="SvgjsPath1023" sodipodi:nodetypes="cc"></path>
      <path class="green" style="fill:none;stroke-width:5;stroke-linecap:round;stroke-linejoin:miter;stroke-dasharray:none;stroke-opacity:1" d="m 654.98248,1046.1688 c 30.44905,0.079 32.99091,-3.0656 32.80254,-33.1798" id="SvgjsPath1022" sodipodi:nodetypes="cc"></path>
      <path class="green" style="fill:none;stroke-width:5;stroke-linecap:round;stroke-linejoin:miter;stroke-dasharray:none;stroke-opacity:1" d="m 720.58257,1045.9871 c -30.44903,-0.079 -32.9909,3.0656 -32.80253,33.1789" id="SvgjsPath1021" sodipodi:nodetypes="cc"></path>
      <path class="green" style="fill:none;stroke-width:5;stroke-linecap:round;stroke-linejoin:miter;stroke-dasharray:none;stroke-opacity:1" d="m 729.98248,971.1672 c 30.44905,0.0794 32.99091,-3.06559 32.80254,-33.1789" id="SvgjsPath1020" sodipodi:nodetypes="cc"></path>
      <path class="green" style="fill:none;stroke-width:5;stroke-linecap:round;stroke-linejoin:miter;stroke-dasharray:none;stroke-opacity:1" d="m 795.58257,970.98556 c -30.44904,-0.0794 -32.9909,3.06559 -32.80253,33.17914" id="SvgjsPath1019" sodipodi:nodetypes="cc"></path>
      <path class="red" style="fill:none;stroke-width:5;stroke-linecap:round;stroke-linejoin:miter;stroke-dasharray:none;stroke-opacity:1" d="m 804.98248,1046.1688 c 30.44905,0.079 32.99091,-3.0656 32.80254,-33.1798" id="SvgjsPath1018" sodipodi:nodetypes="cc"></path>
      <path class="red" style="fill:none;stroke-width:5;stroke-linecap:round;stroke-linejoin:miter;stroke-dasharray:none;stroke-opacity:1" d="m 870.58257,1045.9871 c -30.44903,-0.079 -32.9909,3.0656 -32.80253,33.1789" id="SvgjsPath1017" sodipodi:nodetypes="cc"></path>
      <path class="blue" style="fill:none;stroke-width:5;stroke-linecap:round;stroke-linejoin:miter;stroke-dasharray:none;stroke-opacity:1" d="m 804.98248,1121.1689 c 30.44905,0.079 32.99091,-3.0656 32.80254,-33.1789" id="SvgjsPath1016" sodipodi:nodetypes="cc"></path>
      <path class="blue" style="fill:none;stroke-width:5;stroke-linecap:round;stroke-linejoin:miter;stroke-dasharray:none;stroke-opacity:1" d="m 870.58257,1120.9872 c -30.44903,-0.079 -32.9909,3.0656 -32.80253,33.179" id="SvgjsPath1015" sodipodi:nodetypes="cc"></path>
      <path class="blue" style="fill:none;stroke-width:5;stroke-linecap:round;stroke-linejoin:miter;stroke-dasharray:none;stroke-opacity:1" d="m 729.98248,1046.1688 c 30.44905,0.079 32.99091,-3.0656 32.80254,-33.1798" id="SvgjsPath1014" sodipodi:nodetypes="cc"></path>
      <path class="blue" style="fill:none;stroke-width:5;stroke-linecap:round;stroke-linejoin:miter;stroke-dasharray:none;stroke-opacity:1" d="m 795.58257,1045.9871 c -30.44904,-0.079 -32.9909,3.0656 -32.80253,33.1789" id="SvgjsPath1013" sodipodi:nodetypes="cc"></path>
      <path class="red" style="fill:none;stroke-width:5;stroke-linecap:round;stroke-linejoin:miter;stroke-dasharray:none;stroke-opacity:1" d="m 654.98248,1121.1689 c 30.44905,0.079 32.99091,-3.0656 32.80254,-33.1789" id="SvgjsPath1012" sodipodi:nodetypes="cc"></path>
      <path class="red" style="fill:none;stroke-width:5;stroke-linecap:round;stroke-linejoin:miter;stroke-dasharray:none;stroke-opacity:1" d="m 720.58257,1120.9872 c -30.44903,-0.079 -32.9909,3.0656 -32.80253,33.179" id="SvgjsPath1011" sodipodi:nodetypes="cc"></path>
      <path class="green" style="fill:none;stroke-width:5;stroke-linecap:round;stroke-linejoin:miter;stroke-dasharray:none;stroke-opacity:1" d="m 729.98248,1121.1689 c 30.44905,0.079 32.99091,-3.0656 32.80254,-33.1789" id="SvgjsPath1010" sodipodi:nodetypes="cc"></path>
      <path class="green" style="fill:none;stroke-width:5;stroke-linecap:round;stroke-linejoin:miter;stroke-dasharray:none;stroke-opacity:1" d="m 795.58257,1120.9872 c -30.44904,-0.079 -32.9909,3.0656 -32.80253,33.179" id="SvgjsPath1009" sodipodi:nodetypes="cc"></path>
      <path class="red" style="fill-opacity:1;stroke-width:4;stroke-linecap:round;stroke-linejoin:round;stroke-dasharray:none;stroke-opacity:1" d="m 676.693,969.42075 c 2.98516,4.47839 4.97242,7.89306 12.79536,12.84109 1.69076,-5.84783 3.10679,-7.01022 8.79606,-9.32216 -4.79571,-6.72036 -8.61932,-8.15824 -12.60342,-12.04921 -1.36767,5.86346 -2.9364,7.1063 -8.988,8.53028 z" id="SvgjsPath1008" sodipodi:nodetypes="ccccc"></path>
      <path class="blue" style="fill-opacity:1;stroke-width:4;stroke-linecap:round;stroke-linejoin:round;stroke-dasharray:none;stroke-opacity:1" d="m 826.693,969.42075 c 2.98516,4.47839 4.97242,7.89306 12.79536,12.84109 1.69076,-5.84783 3.10679,-7.01022 8.79606,-9.32216 -4.79571,-6.72036 -8.61933,-8.15824 -12.60343,-12.04921 -1.36766,5.86346 -2.9364,7.1063 -8.98799,8.53028 z" id="SvgjsPath1007" sodipodi:nodetypes="ccccc"></path>
      <path class="green" style="fill-opacity:1;stroke-width:4;stroke-linecap:round;stroke-linejoin:round;stroke-dasharray:none;stroke-opacity:1" d="m 676.693,1044.4223 c 2.98516,4.4784 4.97242,7.8931 12.79536,12.8411 1.69076,-5.8478 3.10679,-7.0102 8.79606,-9.3222 -4.79571,-6.7203 -8.61932,-8.1582 -12.60342,-12.0492 -1.36767,5.8635 -2.9364,7.1063 -8.988,8.5303 z" id="SvgjsPath1006" sodipodi:nodetypes="ccccc"></path>
      <path class="green" style="fill-opacity:1;stroke-width:4;stroke-linecap:round;stroke-linejoin:round;stroke-dasharray:none;stroke-opacity:1" d="m 751.69299,969.42075 c 2.98517,4.47839 4.97242,7.89306 12.79537,12.84109 1.69076,-5.84783 3.10679,-7.01022 8.79605,-9.32216 -4.7957,-6.72036 -8.61932,-8.15824 -12.60342,-12.04921 -1.36766,5.86346 -2.9364,7.1063 -8.988,8.53028 z" id="SvgjsPath1005" sodipodi:nodetypes="ccccc"></path>
      <path class="red" style="fill-opacity:1;stroke-width:4;stroke-linecap:round;stroke-linejoin:round;stroke-dasharray:none;stroke-opacity:1" d="m 826.693,1044.4223 c 2.98516,4.4784 4.97242,7.8931 12.79536,12.8411 1.69076,-5.8478 3.10679,-7.0102 8.79606,-9.3222 -4.79571,-6.7203 -8.61933,-8.1582 -12.60343,-12.0492 -1.36766,5.8635 -2.9364,7.1063 -8.98799,8.5303 z" id="SvgjsPath1004" sodipodi:nodetypes="ccccc"></path>
      <path class="blue" style="fill-opacity:1;stroke-width:4;stroke-linecap:round;stroke-linejoin:round;stroke-dasharray:none;stroke-opacity:1" d="m 826.693,1119.4224 c 2.98516,4.4784 4.97242,7.8931 12.79536,12.8411 1.69076,-5.8478 3.10679,-7.0102 8.79606,-9.3221 -4.79571,-6.7204 -8.61933,-8.1583 -12.60343,-12.0492 -1.36766,5.8634 -2.9364,7.1063 -8.98799,8.5302 z" id="SvgjsPath1003" sodipodi:nodetypes="ccccc"></path>
      <path class="blue" style="fill-opacity:1;stroke-width:4;stroke-linecap:round;stroke-linejoin:round;stroke-dasharray:none;stroke-opacity:1" d="m 751.69299,1044.4223 c 2.98517,4.4784 4.97242,7.8931 12.79537,12.8411 1.69076,-5.8478 3.10679,-7.0102 8.79605,-9.3222 -4.7957,-6.7203 -8.61932,-8.1582 -12.60342,-12.0492 -1.36766,5.8635 -2.9364,7.1063 -8.988,8.5303 z" id="SvgjsPath1002" sodipodi:nodetypes="ccccc"></path>
      <path class="red" style="fill-opacity:1;stroke-width:4;stroke-linecap:round;stroke-linejoin:round;stroke-dasharray:none;stroke-opacity:1" d="m 676.693,1119.4224 c 2.98516,4.4784 4.97242,7.8931 12.79536,12.8411 1.69076,-5.8478 3.10679,-7.0102 8.79606,-9.3221 -4.79571,-6.7204 -8.61932,-8.1583 -12.60342,-12.0492 -1.36767,5.8634 -2.9364,7.1063 -8.988,8.5302 z" id="SvgjsPath1001" sodipodi:nodetypes="ccccc"></path>
      <path class="green" style="fill-opacity:1;stroke-width:4;stroke-linecap:round;stroke-linejoin:round;stroke-dasharray:none;stroke-opacity:1" d="m 751.69299,1119.4224 c 2.98517,4.4784 4.97242,7.8931 12.79537,12.8411 1.69076,-5.8478 3.10679,-7.0102 8.79605,-9.3221 -4.7957,-6.7204 -8.61932,-8.1583 -12.60342,-12.0492 -1.36766,5.8634 -2.9364,7.1063 -8.988,8.5302 z" id="SvgjsPath1000" sodipodi:nodetypes="ccccc"></path>
    </g>
  </g>
</svg>
<style>
  @media (prefers-color-scheme: light) {
    .red { fill: #b14530; stroke: #b14530; }
    .green { fill: #30753d; stroke: #30753d; }
    .blue { fill: #3a69a6; stroke: #3a69a6; }
  }
  @media (prefers-color-scheme: dark) {
    .red { fill: #ffd2cc; stroke: #ffd2cc; }
    .green { fill: #a9ffac; stroke: #a9ffac; }
    .blue { fill: #ceddff; stroke: #ceddff; }
  }
</style>
</svg>