<?xml version="1.0" encoding="UTF-8" standalone="no"?>
<!-- Created with Inkscape (http://www.inkscape.org/) -->

<svg
   width="220.60013mm"
   height="221.17786mm"
   viewBox="0 0 220.60013 221.17786"
   version="1.1"
   id="svg5"
   inkscape:version="1.2.2 (b0a8486541, 2022-12-01)"
   sodipodi:docname="logo.svg"
   inkscape:export-filename="logo.png"
   inkscape:export-xdpi="30.370001"
   inkscape:export-ydpi="30.370001"
   xmlns:inkscape="http://www.inkscape.org/namespaces/inkscape"
   xmlns:sodipodi="http://sodipodi.sourceforge.net/DTD/sodipodi-0.dtd"
   xmlns="http://www.w3.org/2000/svg"
   xmlns:svg="http://www.w3.org/2000/svg">
  <sodipodi:namedview
     id="namedview7"
     pagecolor="#30753d"
     bordercolor="#666666"
     borderopacity="1.0"
     inkscape:showpageshadow="2"
     inkscape:pageopacity="0"
     inkscape:pagecheckerboard="0"
     inkscape:deskcolor="#d1d1d1"
     inkscape:document-units="mm"
     showgrid="false"
     showguides="false"
     inkscape:zoom="0.13716686"
     inkscape:cx="579.58604"
     inkscape:cy="2318.3442"
     inkscape:window-width="1918"
     inkscape:window-height="1043"
     inkscape:window-x="0"
     inkscape:window-y="35"
     inkscape:window-maximized="1"
     inkscape:current-layer="layer1" />
  <defs
     id="defs2" />
  <g
     inkscape:label="Layer 1"
     inkscape:groupmode="layer"
     id="layer1"
     transform="translate(-362.43343,-933.90345)">
    <circle
       style="fill:#ffd2cc;fill-opacity:1;stroke:none;stroke-width:0.0616604;stroke-opacity:1;stop-color:#000000"
       id="path111-3-5-6-6-4-9-6"
       cx="955.29211"
       cy="-383.5213"
       r="6.3685937"
       transform="rotate(90)" />
    <circle
       style="fill:#ceddff;fill-opacity:1;stroke-width:0.0616604;stop-color:#000000"
       id="path111-3-5-6-6-1-88-2-0"
       cx="955.29211"
       cy="-533.52124"
       r="6.3685937"
       transform="rotate(90)" />
    <circle
       style="fill:#a9ffac;fill-opacity:1;stroke-width:0.0616604;stop-color:#000000"
       id="path111-3-5-6-6-3-2-5-5"
       cx="1030.2925"
       cy="-383.5213"
       r="6.3685937"
       transform="rotate(90)" />
    <circle
       style="fill:#a9ffac;fill-opacity:1;stroke-width:0.0616604;stop-color:#000000"
       id="path111-3-5-6-6-31-6-4-0"
       cx="955.29211"
       cy="-458.5213"
       r="6.3685937"
       transform="rotate(90)" />
    <circle
       style="fill:#ffd2cc;fill-opacity:1;stroke:none;stroke-width:0.0616604;stroke-opacity:1;stop-color:#000000"
       id="path111-3-5-6-6-31-7-0-0-29"
       cx="1030.2925"
       cy="-533.52124"
       r="6.3685937"
       transform="rotate(90)" />
    <circle
       style="fill:#ceddff;fill-opacity:1;stroke-width:0.0616604;stop-color:#000000"
       id="path111-3-5-6-6-31-9-2-5-4"
       cx="1105.2922"
       cy="-533.52124"
       r="6.3685937"
       transform="rotate(90)" />
    <circle
       style="fill:#ceddff;fill-opacity:1;stroke-width:0.0616604;stop-color:#000000"
       id="path111-3-5-6-6-3-4-0-9-3"
       cx="1030.2925"
       cy="-458.5213"
       r="6.3685937"
       transform="rotate(90)" />
    <circle
       style="fill:#ffd2cc;fill-opacity:1;stroke:none;stroke-width:0.0616604;stroke-opacity:1;stop-color:#000000"
       id="path111-3-5-6-6-3-9-0-4-5"
       cx="1105.2922"
       cy="-383.5213"
       r="6.3685937"
       transform="rotate(90)" />
    <circle
       style="fill:#a9ffac;fill-opacity:1;stroke-width:0.0616604;stop-color:#000000"
       id="path111-3-5-6-6-3-4-8-1-6-1"
       cx="1105.2922"
       cy="-458.5213"
       r="6.3685937"
       transform="rotate(90)" />
    <path
       style="fill:none;stroke:#ffd2cc;stroke-width:5;stroke-linecap:round;stroke-linejoin:miter;stroke-dasharray:none;stroke-opacity:1"
       d="m 364.93343,969.58234 c 30.44905,0.079 32.99091,-3.0656 32.80254,-33.1789"
       id="path1346-9-3-2-3-9-7"
       sodipodi:nodetypes="cc" />
    <path
       style="fill:none;stroke:#ffd2cc;stroke-width:5;stroke-linecap:round;stroke-linejoin:miter;stroke-dasharray:none;stroke-opacity:1"
       d="m 430.53352,969.40074 c -30.44903,-0.079 -32.9909,3.0656 -32.80253,33.17906"
       id="path1346-9-3-0-6-0-2-4"
       sodipodi:nodetypes="cc" />
    <path
       style="fill:none;stroke:#ceddff;stroke-width:5;stroke-linecap:round;stroke-linejoin:miter;stroke-dasharray:none;stroke-opacity:1"
       d="m 514.93341,969.58234 c 30.4491,0.079 32.9909,-3.0656 32.8026,-33.1789"
       id="path1346-9-3-2-5-43-2-3"
       sodipodi:nodetypes="cc" />
    <path
       style="fill:none;stroke:#ceddff;stroke-width:5;stroke-linecap:round;stroke-linejoin:miter;stroke-dasharray:none;stroke-opacity:1"
       d="m 580.53351,969.40074 c -30.449,-0.079 -32.9909,3.0656 -32.8025,33.17906"
       id="path1346-9-3-0-6-9-1-4-1"
       sodipodi:nodetypes="cc" />
    <path
       style="fill:none;stroke:#a9ffac;stroke-width:5;stroke-linecap:round;stroke-linejoin:miter;stroke-dasharray:none;stroke-opacity:1"
       d="m 364.93343,1044.5839 c 30.44905,0.079 32.99091,-3.0656 32.80254,-33.1798"
       id="path1346-9-3-2-6-06-7-4"
       sodipodi:nodetypes="cc" />
    <path
       style="fill:none;stroke:#a9ffac;stroke-width:5;stroke-linecap:round;stroke-linejoin:miter;stroke-dasharray:none;stroke-opacity:1"
       d="m 430.53352,1044.4022 c -30.44903,-0.079 -32.9909,3.0656 -32.80253,33.1789"
       id="path1346-9-3-0-6-1-8-7-6"
       sodipodi:nodetypes="cc" />
    <path
       style="fill:none;stroke:#a9ffac;stroke-width:5;stroke-linecap:round;stroke-linejoin:miter;stroke-dasharray:none;stroke-opacity:1"
       d="m 439.93343,969.58234 c 30.44905,0.079 32.99091,-3.0656 32.80254,-33.1789"
       id="path1346-9-3-2-9-6-5-9"
       sodipodi:nodetypes="cc" />
    <path
       style="fill:none;stroke:#a9ffac;stroke-width:5;stroke-linecap:round;stroke-linejoin:miter;stroke-dasharray:none;stroke-opacity:1"
       d="m 505.53351,969.40074 c -30.44903,-0.079 -32.99089,3.0656 -32.80252,33.17906"
       id="path1346-9-3-0-6-4-4-4-4"
       sodipodi:nodetypes="cc" />
    <path
       style="fill:none;stroke:#ffd2cc;stroke-width:5;stroke-linecap:round;stroke-linejoin:miter;stroke-dasharray:none;stroke-opacity:1"
       d="m 514.93341,1044.5839 c 30.4491,0.079 32.9909,-3.0656 32.8026,-33.1798"
       id="path1346-9-3-2-9-3-4-8-2"
       sodipodi:nodetypes="cc" />
    <path
       style="fill:none;stroke:#ffd2cc;stroke-width:5;stroke-linecap:round;stroke-linejoin:miter;stroke-dasharray:none;stroke-opacity:1"
       d="m 580.53351,1044.4022 c -30.449,-0.079 -32.9909,3.0656 -32.8025,33.1789"
       id="path1346-9-3-0-6-4-6-8-1-2"
       sodipodi:nodetypes="cc" />
    <path
       style="fill:none;stroke:#ceddff;stroke-width:5;stroke-linecap:round;stroke-linejoin:miter;stroke-dasharray:none;stroke-opacity:1"
       d="m 514.93341,1119.584 c 30.4491,0.079 32.9909,-3.0656 32.8026,-33.1789"
       id="path1346-9-3-2-9-4-7-2-6"
       sodipodi:nodetypes="cc" />
    <path
       style="fill:none;stroke:#ceddff;stroke-width:5;stroke-linecap:round;stroke-linejoin:miter;stroke-dasharray:none;stroke-opacity:1"
       d="m 580.53351,1119.4023 c -30.449,-0.079 -32.9909,3.0656 -32.8025,33.179"
       id="path1346-9-3-0-6-4-8-2-8-4"
       sodipodi:nodetypes="cc" />
    <path
       style="fill:none;stroke:#ceddff;stroke-width:5;stroke-linecap:round;stroke-linejoin:miter;stroke-dasharray:none;stroke-opacity:1"
       d="m 439.93343,1044.5839 c 30.44905,0.079 32.99091,-3.0656 32.80254,-33.1798"
       id="path1346-9-3-2-6-5-61-9-1"
       sodipodi:nodetypes="cc" />
    <path
       style="fill:none;stroke:#ceddff;stroke-width:5;stroke-linecap:round;stroke-linejoin:miter;stroke-dasharray:none;stroke-opacity:1"
       d="m 505.53351,1044.4022 c -30.44903,-0.079 -32.99089,3.0656 -32.80252,33.1789"
       id="path1346-9-3-0-6-1-0-5-3-2"
       sodipodi:nodetypes="cc" />
    <path
       style="fill:none;stroke:#ffd2cc;stroke-width:5;stroke-linecap:round;stroke-linejoin:miter;stroke-dasharray:none;stroke-opacity:1"
       d="m 364.93343,1119.584 c 30.44905,0.079 32.99091,-3.0656 32.80254,-33.1789"
       id="path1346-9-3-2-6-3-9-6-8"
       sodipodi:nodetypes="cc" />
    <path
       style="fill:none;stroke:#ffd2cc;stroke-width:5;stroke-linecap:round;stroke-linejoin:miter;stroke-dasharray:none;stroke-opacity:1"
       d="m 430.53352,1119.4023 c -30.44903,-0.079 -32.9909,3.0656 -32.80253,33.179"
       id="path1346-9-3-0-6-1-9-1-8-8"
       sodipodi:nodetypes="cc" />
    <path
       style="fill:none;stroke:#a9ffac;stroke-width:5;stroke-linecap:round;stroke-linejoin:miter;stroke-dasharray:none;stroke-opacity:1"
       d="m 439.93343,1119.584 c 30.44905,0.079 32.99091,-3.0656 32.80254,-33.1789"
       id="path1346-9-3-2-6-5-5-1-0-9"
       sodipodi:nodetypes="cc" />
    <path
       style="fill:none;stroke:#a9ffac;stroke-width:5;stroke-linecap:round;stroke-linejoin:miter;stroke-dasharray:none;stroke-opacity:1"
       d="m 505.53351,1119.4023 c -30.44903,-0.079 -32.99089,3.0656 -32.80252,33.179"
       id="path1346-9-3-0-6-1-0-0-5-2-2"
       sodipodi:nodetypes="cc" />
    <path
       style="fill:#ffd2cc;fill-opacity:1;stroke:#ffd2cc;stroke-width:4;stroke-linecap:round;stroke-linejoin:round;stroke-dasharray:none;stroke-opacity:1"
       d="m 386.64395,967.83594 c 2.98516,4.4784 4.97242,7.893 12.79536,12.8411 1.69076,-5.8479 3.10679,-7.0102 8.79606,-9.3222 -4.79571,-6.7203 -8.61932,-8.1582 -12.60342,-12.0492 -1.36767,5.8635 -2.9364,7.1063 -8.988,8.5303 z"
       id="path3244-78-1-8"
       sodipodi:nodetypes="ccccc" />
    <path
       style="fill:#ceddff;fill-opacity:1;stroke:#ceddff;stroke-width:4;stroke-linecap:round;stroke-linejoin:round;stroke-dasharray:none;stroke-opacity:1"
       d="m 536.64391,967.83594 c 2.9852,4.4784 4.9725,7.893 12.7954,12.8411 1.6908,-5.8479 3.1068,-7.0102 8.7961,-9.3222 -4.7958,-6.7203 -8.6194,-8.1582 -12.6035,-12.0492 -1.3676,5.8635 -2.9364,7.1063 -8.988,8.5303 z"
       id="path3244-77-4-0-8"
       sodipodi:nodetypes="ccccc" />
    <path
       style="fill:#a9ffac;fill-opacity:1;stroke:#a9ffac;stroke-width:4;stroke-linecap:round;stroke-linejoin:round;stroke-dasharray:none;stroke-opacity:1"
       d="m 386.64395,1042.8374 c 2.98516,4.4784 4.97242,7.8931 12.79536,12.8411 1.69076,-5.8478 3.10679,-7.0102 8.79606,-9.3222 -4.79571,-6.7203 -8.61932,-8.1582 -12.60342,-12.0492 -1.36767,5.8635 -2.9364,7.1063 -8.988,8.5303 z"
       id="path3244-2-9-5-8"
       sodipodi:nodetypes="ccccc" />
    <path
       style="fill:#a9ffac;fill-opacity:1;stroke:#a9ffac;stroke-width:4;stroke-linecap:round;stroke-linejoin:round;stroke-dasharray:none;stroke-opacity:1"
       d="m 461.64394,967.83594 c 2.98517,4.4784 4.97242,7.893 12.79537,12.8411 1.69076,-5.8479 3.10679,-7.0102 8.79605,-9.3222 -4.7957,-6.7203 -8.61932,-8.1582 -12.60342,-12.0492 -1.36766,5.8635 -2.9364,7.1063 -8.988,8.5303 z"
       id="path3244-7-9-1-6"
       sodipodi:nodetypes="ccccc" />
    <path
       style="fill:#ffd2cc;fill-opacity:1;stroke:#ffd2cc;stroke-width:4;stroke-linecap:round;stroke-linejoin:round;stroke-dasharray:none;stroke-opacity:1"
       d="m 536.64391,1042.8374 c 2.9852,4.4784 4.9725,7.8931 12.7954,12.8411 1.6908,-5.8478 3.1068,-7.0102 8.7961,-9.3222 -4.7958,-6.7203 -8.6194,-8.1582 -12.6035,-12.0492 -1.3676,5.8635 -2.9364,7.1063 -8.988,8.5303 z"
       id="path3244-7-5-71-1-8"
       sodipodi:nodetypes="ccccc" />
    <path
       style="fill:#ceddff;fill-opacity:1;stroke:#ceddff;stroke-width:4;stroke-linecap:round;stroke-linejoin:round;stroke-dasharray:none;stroke-opacity:1"
       d="m 536.64391,1117.8375 c 2.9852,4.4784 4.9725,7.8931 12.7954,12.8411 1.6908,-5.8478 3.1068,-7.0102 8.7961,-9.3221 -4.7958,-6.7204 -8.6194,-8.1583 -12.6035,-12.0492 -1.3676,5.8634 -2.9364,7.1063 -8.988,8.5302 z"
       id="path3244-7-1-26-0-3"
       sodipodi:nodetypes="ccccc" />
    <path
       style="fill:#ceddff;fill-opacity:1;stroke:#ceddff;stroke-width:4;stroke-linecap:round;stroke-linejoin:round;stroke-dasharray:none;stroke-opacity:1"
       d="m 461.64394,1042.8374 c 2.98517,4.4784 4.97242,7.8931 12.79537,12.8411 1.69076,-5.8478 3.10679,-7.0102 8.79605,-9.3222 -4.7957,-6.7203 -8.61932,-8.1582 -12.60342,-12.0492 -1.36766,5.8635 -2.9364,7.1063 -8.988,8.5303 z"
       id="path3244-2-3-94-8-8"
       sodipodi:nodetypes="ccccc" />
    <path
       style="fill:#ffd2cc;fill-opacity:1;stroke:#ffd2cc;stroke-width:4;stroke-linecap:round;stroke-linejoin:round;stroke-dasharray:none;stroke-opacity:1"
       d="m 386.64395,1117.8375 c 2.98516,4.4784 4.97242,7.8931 12.79536,12.8411 1.69076,-5.8478 3.10679,-7.0102 8.79606,-9.3221 -4.79571,-6.7204 -8.61932,-8.1583 -12.60342,-12.0492 -1.36767,5.8634 -2.9364,7.1063 -8.988,8.5302 z"
       id="path3244-2-0-7-5-3"
       sodipodi:nodetypes="ccccc" />
    <path
       style="fill:#a9ffac;fill-opacity:1;stroke:#a9ffac;stroke-width:4;stroke-linecap:round;stroke-linejoin:round;stroke-dasharray:none;stroke-opacity:1"
       d="m 461.64394,1117.8375 c 2.98517,4.4784 4.97242,7.8931 12.79537,12.8411 1.69076,-5.8478 3.10679,-7.0102 8.79605,-9.3221 -4.7957,-6.7204 -8.61932,-8.1583 -12.60342,-12.0492 -1.36766,5.8634 -2.9364,7.1063 -8.988,8.5302 z"
       id="path3244-2-3-9-9-0-3"
       sodipodi:nodetypes="ccccc" />
  </g>
</svg>
