<?xml version="1.0" encoding="UTF-8" standalone="no"?>
<!-- Created with Inkscape (http://www.inkscape.org/) -->

<svg
   width="220.6001mm"
   height="221.17798mm"
   viewBox="0 0 220.6001 221.17798"
   version="1.1"
   id="svg5"
   inkscape:version="1.2.2 (b0a8486541, 2022-12-01)"
   sodipodi:docname="logo.svg"
   inkscape:export-filename="logo.png"
   inkscape:export-xdpi="30.370001"
   inkscape:export-ydpi="30.370001"
   xmlns:inkscape="http://www.inkscape.org/namespaces/inkscape"
   xmlns:sodipodi="http://sodipodi.sourceforge.net/DTD/sodipodi-0.dtd"
   xmlns="http://www.w3.org/2000/svg"
   xmlns:svg="http://www.w3.org/2000/svg">
  <sodipodi:namedview
     id="namedview7"
     pagecolor="#30753d"
     bordercolor="#666666"
     borderopacity="1.0"
     inkscape:showpageshadow="2"
     inkscape:pageopacity="0"
     inkscape:pagecheckerboard="0"
     inkscape:deskcolor="#d1d1d1"
     inkscape:document-units="mm"
     showgrid="false"
     showguides="false"
     inkscape:zoom="0.13716686"
     inkscape:cx="579.58604"
     inkscape:cy="2318.3442"
     inkscape:window-width="1918"
     inkscape:window-height="1043"
     inkscape:window-x="0"
     inkscape:window-y="35"
     inkscape:window-maximized="1"
     inkscape:current-layer="layer1" />
  <defs
     id="defs2" />
  <g
     inkscape:label="Layer 1"
     inkscape:groupmode="layer"
     id="layer1"
     transform="translate(-652.48246,-935.48829)">
    <g
       id="g15806">
      <circle
         style="fill:#b14530;fill-opacity:1;stroke-width:0.0616604;stop-color:#000000"
         id="path111-3-5-6-6-4-9"
         cx="956.87689"
         cy="-673.57037"
         r="6.3685937"
         transform="rotate(90)" />
      <circle
         style="fill:#3a69a6;fill-opacity:1;stroke-width:0.0616604;stop-color:#000000"
         id="path111-3-5-6-6-1-88-2"
         cx="956.87689"
         cy="-823.57037"
         r="6.3685937"
         transform="rotate(90)" />
      <circle
         style="fill:#30753d;fill-opacity:1;stroke-width:0.0616604;stop-color:#000000"
         id="path111-3-5-6-6-3-2-5"
         cx="1031.8773"
         cy="-673.57037"
         r="6.3685937"
         transform="rotate(90)" />
      <circle
         style="fill:#30753d;fill-opacity:1;stroke-width:0.0616604;stop-color:#000000"
         id="path111-3-5-6-6-31-6-4"
         cx="956.87689"
         cy="-748.57037"
         r="6.3685937"
         transform="rotate(90)" />
      <circle
         style="fill:#b14530;fill-opacity:1;stroke-width:0.0616604;stop-color:#000000"
         id="path111-3-5-6-6-31-7-0-0"
         cx="1031.8773"
         cy="-823.57037"
         r="6.3685937"
         transform="rotate(90)" />
      <circle
         style="fill:#3a69a6;fill-opacity:1;stroke-width:0.0616604;stop-color:#000000"
         id="path111-3-5-6-6-31-9-2-5"
         cx="1106.8771"
         cy="-823.57037"
         r="6.3685937"
         transform="rotate(90)" />
      <circle
         style="fill:#3a69a6;fill-opacity:1;stroke-width:0.0616604;stop-color:#000000"
         id="path111-3-5-6-6-3-4-0-9"
         cx="1031.8773"
         cy="-748.57037"
         r="6.3685937"
         transform="rotate(90)" />
      <circle
         style="fill:#b14530;fill-opacity:1;stroke-width:0.0616604;stop-color:#000000"
         id="path111-3-5-6-6-3-9-0-4"
         cx="1106.8771"
         cy="-673.57037"
         r="6.3685937"
         transform="rotate(90)" />
      <circle
         style="fill:#30753d;fill-opacity:1;stroke-width:0.0616604;stop-color:#000000"
         id="path111-3-5-6-6-3-4-8-1-6"
         cx="1106.8771"
         cy="-748.57037"
         r="6.3685937"
         transform="rotate(90)" />
      <path
         style="fill:none;stroke:#b14530;stroke-width:5;stroke-linecap:round;stroke-linejoin:miter;stroke-dasharray:none;stroke-opacity:1"
         d="m 654.98248,971.1672 c 30.44905,0.0794 32.99091,-3.06559 32.80254,-33.1789"
         id="path1346-9-3-2-3-9"
         sodipodi:nodetypes="cc" />
      <path
         style="fill:none;stroke:#b14530;stroke-width:5;stroke-linecap:round;stroke-linejoin:miter;stroke-dasharray:none;stroke-opacity:1"
         d="m 720.58257,970.98556 c -30.44903,-0.0794 -32.9909,3.06559 -32.80253,33.17914"
         id="path1346-9-3-0-6-0-2"
         sodipodi:nodetypes="cc" />
      <path
         style="fill:none;stroke:#3a69a6;stroke-width:5;stroke-linecap:round;stroke-linejoin:miter;stroke-dasharray:none;stroke-opacity:1"
         d="m 804.98248,971.1672 c 30.44905,0.0794 32.99091,-3.06559 32.80254,-33.1789"
         id="path1346-9-3-2-5-43-2"
         sodipodi:nodetypes="cc" />
      <path
         style="fill:none;stroke:#3a69a6;stroke-width:5;stroke-linecap:round;stroke-linejoin:miter;stroke-dasharray:none;stroke-opacity:1"
         d="m 870.58257,970.98556 c -30.44903,-0.0794 -32.9909,3.06559 -32.80253,33.17914"
         id="path1346-9-3-0-6-9-1-4"
         sodipodi:nodetypes="cc" />
      <path
         style="fill:none;stroke:#30753d;stroke-width:5;stroke-linecap:round;stroke-linejoin:miter;stroke-dasharray:none;stroke-opacity:1"
         d="m 654.98248,1046.1688 c 30.44905,0.079 32.99091,-3.0656 32.80254,-33.1798"
         id="path1346-9-3-2-6-06-7"
         sodipodi:nodetypes="cc" />
      <path
         style="fill:none;stroke:#30753d;stroke-width:5;stroke-linecap:round;stroke-linejoin:miter;stroke-dasharray:none;stroke-opacity:1"
         d="m 720.58257,1045.9871 c -30.44903,-0.079 -32.9909,3.0656 -32.80253,33.1789"
         id="path1346-9-3-0-6-1-8-7"
         sodipodi:nodetypes="cc" />
      <path
         style="fill:none;stroke:#30753d;stroke-width:5;stroke-linecap:round;stroke-linejoin:miter;stroke-dasharray:none;stroke-opacity:1"
         d="m 729.98248,971.1672 c 30.44905,0.0794 32.99091,-3.06559 32.80254,-33.1789"
         id="path1346-9-3-2-9-6-5"
         sodipodi:nodetypes="cc" />
      <path
         style="fill:none;stroke:#30753d;stroke-width:5;stroke-linecap:round;stroke-linejoin:miter;stroke-dasharray:none;stroke-opacity:1"
         d="m 795.58257,970.98556 c -30.44904,-0.0794 -32.9909,3.06559 -32.80253,33.17914"
         id="path1346-9-3-0-6-4-4-4"
         sodipodi:nodetypes="cc" />
      <path
         style="fill:none;stroke:#b14530;stroke-width:5;stroke-linecap:round;stroke-linejoin:miter;stroke-dasharray:none;stroke-opacity:1"
         d="m 804.98248,1046.1688 c 30.44905,0.079 32.99091,-3.0656 32.80254,-33.1798"
         id="path1346-9-3-2-9-3-4-8"
         sodipodi:nodetypes="cc" />
      <path
         style="fill:none;stroke:#b14530;stroke-width:5;stroke-linecap:round;stroke-linejoin:miter;stroke-dasharray:none;stroke-opacity:1"
         d="m 870.58257,1045.9871 c -30.44903,-0.079 -32.9909,3.0656 -32.80253,33.1789"
         id="path1346-9-3-0-6-4-6-8-1"
         sodipodi:nodetypes="cc" />
      <path
         style="fill:none;stroke:#3a69a6;stroke-width:5;stroke-linecap:round;stroke-linejoin:miter;stroke-dasharray:none;stroke-opacity:1"
         d="m 804.98248,1121.1689 c 30.44905,0.079 32.99091,-3.0656 32.80254,-33.1789"
         id="path1346-9-3-2-9-4-7-2"
         sodipodi:nodetypes="cc" />
      <path
         style="fill:none;stroke:#3a69a6;stroke-width:5;stroke-linecap:round;stroke-linejoin:miter;stroke-dasharray:none;stroke-opacity:1"
         d="m 870.58257,1120.9872 c -30.44903,-0.079 -32.9909,3.0656 -32.80253,33.179"
         id="path1346-9-3-0-6-4-8-2-8"
         sodipodi:nodetypes="cc" />
      <path
         style="fill:none;stroke:#3a69a6;stroke-width:5;stroke-linecap:round;stroke-linejoin:miter;stroke-dasharray:none;stroke-opacity:1"
         d="m 729.98248,1046.1688 c 30.44905,0.079 32.99091,-3.0656 32.80254,-33.1798"
         id="path1346-9-3-2-6-5-61-9"
         sodipodi:nodetypes="cc" />
      <path
         style="fill:none;stroke:#3a69a6;stroke-width:5;stroke-linecap:round;stroke-linejoin:miter;stroke-dasharray:none;stroke-opacity:1"
         d="m 795.58257,1045.9871 c -30.44904,-0.079 -32.9909,3.0656 -32.80253,33.1789"
         id="path1346-9-3-0-6-1-0-5-3"
         sodipodi:nodetypes="cc" />
      <path
         style="fill:none;stroke:#b14530;stroke-width:5;stroke-linecap:round;stroke-linejoin:miter;stroke-dasharray:none;stroke-opacity:1"
         d="m 654.98248,1121.1689 c 30.44905,0.079 32.99091,-3.0656 32.80254,-33.1789"
         id="path1346-9-3-2-6-3-9-6"
         sodipodi:nodetypes="cc" />
      <path
         style="fill:none;stroke:#b14530;stroke-width:5;stroke-linecap:round;stroke-linejoin:miter;stroke-dasharray:none;stroke-opacity:1"
         d="m 720.58257,1120.9872 c -30.44903,-0.079 -32.9909,3.0656 -32.80253,33.179"
         id="path1346-9-3-0-6-1-9-1-8"
         sodipodi:nodetypes="cc" />
      <path
         style="fill:none;stroke:#30753d;stroke-width:5;stroke-linecap:round;stroke-linejoin:miter;stroke-dasharray:none;stroke-opacity:1"
         d="m 729.98248,1121.1689 c 30.44905,0.079 32.99091,-3.0656 32.80254,-33.1789"
         id="path1346-9-3-2-6-5-5-1-0"
         sodipodi:nodetypes="cc" />
      <path
         style="fill:none;stroke:#30753d;stroke-width:5;stroke-linecap:round;stroke-linejoin:miter;stroke-dasharray:none;stroke-opacity:1"
         d="m 795.58257,1120.9872 c -30.44904,-0.079 -32.9909,3.0656 -32.80253,33.179"
         id="path1346-9-3-0-6-1-0-0-5-2"
         sodipodi:nodetypes="cc" />
      <path
         style="fill:#b14530;fill-opacity:1;stroke:#b14530;stroke-width:4;stroke-linecap:round;stroke-linejoin:round;stroke-dasharray:none;stroke-opacity:1"
         d="m 676.693,969.42075 c 2.98516,4.47839 4.97242,7.89306 12.79536,12.84109 1.69076,-5.84783 3.10679,-7.01022 8.79606,-9.32216 -4.79571,-6.72036 -8.61932,-8.15824 -12.60342,-12.04921 -1.36767,5.86346 -2.9364,7.1063 -8.988,8.53028 z"
         id="path3244-78-1"
         sodipodi:nodetypes="ccccc" />
      <path
         style="fill:#3a69a6;fill-opacity:1;stroke:#3a69a6;stroke-width:4;stroke-linecap:round;stroke-linejoin:round;stroke-dasharray:none;stroke-opacity:1"
         d="m 826.693,969.42075 c 2.98516,4.47839 4.97242,7.89306 12.79536,12.84109 1.69076,-5.84783 3.10679,-7.01022 8.79606,-9.32216 -4.79571,-6.72036 -8.61933,-8.15824 -12.60343,-12.04921 -1.36766,5.86346 -2.9364,7.1063 -8.98799,8.53028 z"
         id="path3244-77-4-0"
         sodipodi:nodetypes="ccccc" />
      <path
         style="fill:#30753d;fill-opacity:1;stroke:#30753d;stroke-width:4;stroke-linecap:round;stroke-linejoin:round;stroke-dasharray:none;stroke-opacity:1"
         d="m 676.693,1044.4223 c 2.98516,4.4784 4.97242,7.8931 12.79536,12.8411 1.69076,-5.8478 3.10679,-7.0102 8.79606,-9.3222 -4.79571,-6.7203 -8.61932,-8.1582 -12.60342,-12.0492 -1.36767,5.8635 -2.9364,7.1063 -8.988,8.5303 z"
         id="path3244-2-9-5"
         sodipodi:nodetypes="ccccc" />
      <path
         style="fill:#30753d;fill-opacity:1;stroke:#30753d;stroke-width:4;stroke-linecap:round;stroke-linejoin:round;stroke-dasharray:none;stroke-opacity:1"
         d="m 751.69299,969.42075 c 2.98517,4.47839 4.97242,7.89306 12.79537,12.84109 1.69076,-5.84783 3.10679,-7.01022 8.79605,-9.32216 -4.7957,-6.72036 -8.61932,-8.15824 -12.60342,-12.04921 -1.36766,5.86346 -2.9364,7.1063 -8.988,8.53028 z"
         id="path3244-7-9-1"
         sodipodi:nodetypes="ccccc" />
      <path
         style="fill:#b14530;fill-opacity:1;stroke:#b14530;stroke-width:4;stroke-linecap:round;stroke-linejoin:round;stroke-dasharray:none;stroke-opacity:1"
         d="m 826.693,1044.4223 c 2.98516,4.4784 4.97242,7.8931 12.79536,12.8411 1.69076,-5.8478 3.10679,-7.0102 8.79606,-9.3222 -4.79571,-6.7203 -8.61933,-8.1582 -12.60343,-12.0492 -1.36766,5.8635 -2.9364,7.1063 -8.98799,8.5303 z"
         id="path3244-7-5-71-1"
         sodipodi:nodetypes="ccccc" />
      <path
         style="fill:#3a69a6;fill-opacity:1;stroke:#3a69a6;stroke-width:4;stroke-linecap:round;stroke-linejoin:round;stroke-dasharray:none;stroke-opacity:1"
         d="m 826.693,1119.4224 c 2.98516,4.4784 4.97242,7.8931 12.79536,12.8411 1.69076,-5.8478 3.10679,-7.0102 8.79606,-9.3221 -4.79571,-6.7204 -8.61933,-8.1583 -12.60343,-12.0492 -1.36766,5.8634 -2.9364,7.1063 -8.98799,8.5302 z"
         id="path3244-7-1-26-0"
         sodipodi:nodetypes="ccccc" />
      <path
         style="fill:#3a69a6;fill-opacity:1;stroke:#3a69a6;stroke-width:4;stroke-linecap:round;stroke-linejoin:round;stroke-dasharray:none;stroke-opacity:1"
         d="m 751.69299,1044.4223 c 2.98517,4.4784 4.97242,7.8931 12.79537,12.8411 1.69076,-5.8478 3.10679,-7.0102 8.79605,-9.3222 -4.7957,-6.7203 -8.61932,-8.1582 -12.60342,-12.0492 -1.36766,5.8635 -2.9364,7.1063 -8.988,8.5303 z"
         id="path3244-2-3-94-8"
         sodipodi:nodetypes="ccccc" />
      <path
         style="fill:#b14530;fill-opacity:1;stroke:#b14530;stroke-width:4;stroke-linecap:round;stroke-linejoin:round;stroke-dasharray:none;stroke-opacity:1"
         d="m 676.693,1119.4224 c 2.98516,4.4784 4.97242,7.8931 12.79536,12.8411 1.69076,-5.8478 3.10679,-7.0102 8.79606,-9.3221 -4.79571,-6.7204 -8.61932,-8.1583 -12.60342,-12.0492 -1.36767,5.8634 -2.9364,7.1063 -8.988,8.5302 z"
         id="path3244-2-0-7-5"
         sodipodi:nodetypes="ccccc" />
      <path
         style="fill:#30753d;fill-opacity:1;stroke:#30753d;stroke-width:4;stroke-linecap:round;stroke-linejoin:round;stroke-dasharray:none;stroke-opacity:1"
         d="m 751.69299,1119.4224 c 2.98517,4.4784 4.97242,7.8931 12.79537,12.8411 1.69076,-5.8478 3.10679,-7.0102 8.79605,-9.3221 -4.7957,-6.7204 -8.61932,-8.1583 -12.60342,-12.0492 -1.36766,5.8634 -2.9364,7.1063 -8.988,8.5302 z"
         id="path3244-2-3-9-9-0"
         sodipodi:nodetypes="ccccc" />
    </g>
  </g>
</svg>
