<?xml version="1.0" standalone="no"?>
<!DOCTYPE svg PUBLIC "-//W3C//DTD SVG 20010904//EN"
 "http://www.w3.org/TR/2001/REC-SVG-20010904/DTD/svg10.dtd">
<svg version="1.0" xmlns="http://www.w3.org/2000/svg"
 width="2085.000000pt" height="2085.000000pt" viewBox="0 0 2085.000000 2085.000000"
 preserveAspectRatio="xMidYMid meet">
<metadata>
Created by potrace 1.14, written by Peter Selinger 2001-2017
</metadata>
<g transform="translate(0.000000,2085.000000) scale(0.100000,-0.100000)"
fill="#000000" stroke="none">
<path d="M3275 20838 c-64 -24 -102 -57 -137 -123 -21 -38 -22 -52 -24 -360
-2 -307 -11 -735 -18 -840 -14 -208 -17 -254 -21 -285 -2 -19 -7 -62 -10 -94
-6 -65 -9 -85 -31 -225 -34 -221 -112 -464 -191 -595 -88 -147 -208 -257 -370
-341 -85 -44 -277 -114 -353 -129 -14 -3 -71 -14 -127 -25 -94 -18 -174 -30
-308 -46 -84 -11 -231 -23 -360 -31 -185 -11 -289 -13 -690 -18 -220 -3 -415
-8 -434 -11 -104 -19 -182 -123 -177 -238 3 -72 22 -114 74 -163 66 -62 76
-63 582 -58 250 3 475 7 500 9 25 1 103 6 173 9 71 4 148 9 170 11 209 20 255
25 287 30 14 2 50 7 80 10 30 3 122 19 203 36 82 16 152 27 155 25 4 -2 30
-37 57 -78 241 -356 550 -659 934 -915 2 -1 -6 -48 -17 -105 -12 -57 -24 -119
-27 -138 -3 -19 -7 -46 -10 -60 -3 -14 -7 -50 -10 -80 -3 -30 -8 -66 -10 -80
-3 -22 -10 -96 -20 -205 -4 -34 -14 -210 -21 -335 -2 -47 -7 -296 -10 -553 -4
-341 -2 -482 6 -517 14 -60 72 -129 132 -158 86 -41 211 -14 272 59 58 68 57
65 62 564 2 253 6 503 8 555 8 147 18 312 21 345 1 17 6 64 9 105 9 104 14
137 37 280 103 631 326 910 844 1053 85 24 234 57 282 63 13 1 40 5 60 8 99
16 153 22 258 31 44 3 98 8 120 10 39 4 156 12 325 20 47 3 279 7 515 10 l430
5 50 25 c153 75 176 276 45 388 -69 59 -81 60 -572 53 -244 -4 -465 -8 -493
-10 -27 -2 -111 -7 -185 -10 -74 -4 -148 -9 -165 -11 -16 -2 -64 -7 -105 -10
-41 -3 -88 -8 -105 -10 -16 -2 -52 -7 -80 -10 -127 -15 -268 -40 -380 -66 -49
-11 -99 -23 -110 -25 -14 -3 -26 4 -40 24 -86 126 -366 401 -585 576 -96 77
-214 171 -262 209 -49 39 -88 76 -88 83 0 7 5 25 11 41 15 40 66 283 79 379 6
44 12 89 14 100 2 11 7 54 11 95 3 41 8 85 10 99 2 14 7 70 10 125 4 55 8 118
10 140 20 244 25 1169 6 1233 -15 52 -61 107 -114 134 -48 24 -140 32 -182 16z"/>
<path d="M10333 20832 c-55 -23 -101 -67 -126 -122 -19 -42 -21 -66 -23 -425
-2 -352 -9 -650 -20 -820 -9 -153 -20 -285 -29 -355 -3 -19 -7 -55 -10 -80 -3
-25 -12 -81 -20 -125 -8 -44 -17 -96 -20 -115 -10 -62 -65 -243 -100 -329
-116 -285 -305 -456 -625 -564 -180 -62 -430 -109 -700 -132 -36 -3 -87 -8
-115 -10 -186 -16 -382 -23 -845 -30 -251 -3 -421 -9 -448 -16 -48 -13 -110
-67 -137 -118 -23 -45 -27 -132 -9 -186 19 -54 78 -113 138 -137 44 -17 76
-18 494 -12 246 3 474 7 507 8 112 6 300 17 355 22 153 13 260 24 291 29 14 3
43 7 65 10 21 2 50 7 64 9 14 3 45 8 70 11 25 4 72 13 105 20 133 31 125 33
170 -37 37 -59 130 -187 172 -238 179 -222 358 -391 602 -574 77 -57 148 -109
157 -114 16 -9 15 -17 -6 -128 -29 -155 -27 -141 -35 -204 -13 -94 -15 -103
-20 -160 -3 -30 -8 -75 -10 -100 -9 -82 -21 -263 -31 -475 -3 -66 -7 -311 -9
-545 -4 -470 -1 -500 56 -565 45 -51 90 -74 156 -81 101 -11 199 47 239 141
15 35 17 87 19 410 2 353 12 744 20 830 2 22 7 83 10 135 3 52 8 106 10 120 2
14 6 54 10 90 7 69 12 109 20 150 3 14 7 45 10 70 3 24 10 60 15 80 5 19 11
46 14 60 42 230 152 467 278 601 93 100 248 196 406 253 120 43 353 97 472
111 30 3 66 8 80 10 14 3 50 7 80 10 30 3 75 7 100 10 79 9 205 18 445 30 50
3 281 7 515 10 l424 5 52 25 c176 86 173 333 -5 422 -33 17 -70 18 -451 17
-379 -2 -611 -7 -774 -19 -33 -2 -99 -7 -146 -10 -47 -3 -96 -8 -110 -10 -14
-3 -56 -7 -95 -11 -38 -3 -83 -8 -100 -10 -16 -3 -46 -7 -65 -9 -19 -3 -46 -7
-60 -10 -14 -3 -41 -7 -60 -10 -55 -9 -222 -44 -260 -55 -39 -12 -30 -18 -135
106 -66 79 -293 305 -380 380 -65 56 -157 129 -330 264 -38 30 -82 65 -96 78
-14 12 -34 28 -43 35 -17 13 -17 17 3 88 21 78 48 200 57 259 3 19 9 58 14 85
10 56 19 127 35 285 10 100 20 250 30 460 4 63 8 316 10 561 3 410 1 451 -15
500 -42 125 -185 190 -307 141z"/>
<path d="M17395 20827 c-28 -13 -63 -39 -78 -57 -59 -69 -58 -64 -62 -580 -3
-261 -6 -506 -9 -545 -3 -38 -8 -124 -12 -190 -9 -158 -11 -180 -18 -245 -4
-30 -11 -98 -17 -150 -6 -52 -12 -97 -14 -100 -2 -3 -6 -32 -10 -64 -3 -33 -8
-63 -10 -66 -2 -4 -7 -22 -10 -41 -12 -68 -46 -190 -75 -268 -113 -309 -280
-480 -585 -603 -27 -11 -54 -21 -60 -22 -5 -2 -41 -12 -80 -24 -65 -20 -171
-45 -240 -57 -65 -11 -223 -34 -280 -39 -33 -4 -78 -8 -100 -11 -107 -11 -272
-22 -460 -30 -49 -2 -279 -7 -510 -10 -372 -6 -424 -8 -460 -24 -152 -67 -188
-271 -68 -382 70 -65 61 -64 473 -63 417 1 643 8 940 29 108 7 156 12 220 20
25 3 63 8 85 10 22 2 54 6 70 9 17 3 50 8 75 11 25 4 88 15 140 26 165 34 150
36 190 -24 139 -211 321 -427 491 -582 121 -111 142 -128 288 -236 200 -148
181 -127 165 -190 -16 -59 -23 -96 -30 -149 -2 -19 -9 -60 -14 -90 -12 -70
-18 -120 -25 -195 -3 -33 -7 -75 -10 -93 -32 -257 -55 -1387 -30 -1487 31
-121 168 -199 289 -165 56 15 120 69 149 124 21 39 21 53 23 366 2 329 11 753
19 845 2 28 6 88 9 135 17 258 36 397 92 669 13 65 89 270 125 338 96 185 240
319 436 409 92 43 232 90 323 109 123 27 171 36 260 49 169 25 305 38 520 52
170 10 252 13 700 19 420 6 426 6 477 30 88 40 141 137 130 237 -7 59 -27 97
-73 142 -69 67 -85 69 -553 63 -396 -6 -539 -10 -731 -22 -105 -6 -265 -20
-355 -30 -101 -12 -133 -16 -255 -36 -105 -17 -242 -46 -311 -65 -11 -3 -35
18 -72 63 -180 220 -390 416 -686 643 -40 30 -83 64 -95 75 -13 11 -46 38 -74
59 -35 27 -49 45 -46 58 2 10 6 27 9 38 3 11 7 29 10 41 2 11 7 29 10 39 3 10
8 27 10 37 2 10 8 38 14 63 5 25 15 77 21 115 6 39 13 84 16 100 2 17 6 41 9
55 5 29 16 136 30 310 20 231 28 498 29 960 1 481 2 472 -65 539 -45 45 -82
62 -152 67 -51 4 -71 1 -112 -19z"/>
<path d="M1978 19435 c-2 -2 -26 -5 -53 -9 -110 -13 -228 -67 -317 -146 -61
-53 -140 -171 -168 -251 -28 -81 -37 -226 -20 -312 7 -34 30 -100 52 -146 51
-107 159 -219 258 -268 242 -120 515 -78 701 109 188 188 230 454 109 694 -86
171 -262 298 -445 321 -56 7 -114 11 -117 8z"/>
<path d="M9001 19428 c-205 -27 -383 -162 -473 -358 -48 -104 -59 -293 -23
-410 36 -120 124 -240 228 -314 351 -248 835 -61 932 360 43 181 -15 393 -144
532 -136 147 -323 215 -520 190z"/>
<path d="M16055 19425 c-367 -64 -588 -430 -470 -780 63 -189 216 -334 409
-390 60 -18 213 -24 269 -12 186 40 347 164 425 328 49 102 64 169 61 276 -2
103 -19 167 -67 262 -112 226 -376 359 -627 316z"/>
<path d="M3270 13765 c-53 -17 -102 -60 -132 -118 -21 -40 -22 -54 -24 -352
-5 -747 -24 -1106 -80 -1460 -73 -466 -244 -761 -534 -918 -59 -32 -198 -90
-245 -103 -5 -1 -53 -14 -105 -27 -86 -23 -145 -36 -235 -52 -58 -10 -251 -34
-320 -40 -38 -3 -90 -8 -115 -10 -195 -17 -404 -24 -858 -30 -411 -4 -414 -4
-466 -28 -176 -81 -180 -328 -6 -419 45 -23 46 -23 420 -22 566 1 948 19 1255
60 110 14 324 52 365 64 19 5 40 10 47 10 6 0 42 -44 79 -97 65 -94 176 -240
239 -313 47 -55 245 -249 312 -307 70 -60 300 -234 343 -260 17 -9 30 -22 30
-28 0 -6 -9 -53 -20 -105 -11 -51 -22 -113 -26 -139 -3 -25 -7 -53 -9 -61 -4
-14 -21 -154 -30 -245 -6 -61 -13 -159 -20 -270 -3 -55 -8 -134 -10 -175 -3
-41 -8 -289 -11 -551 -4 -343 -2 -488 6 -519 16 -61 47 -103 103 -141 45 -30
56 -34 121 -33 82 0 136 22 181 76 57 67 56 65 61 557 2 251 6 499 8 551 6
124 16 302 21 365 16 176 24 249 40 335 2 14 7 43 10 65 3 23 8 52 11 65 3 14
7 36 10 50 14 73 60 226 91 304 105 265 258 422 523 539 53 24 193 71 242 82
205 45 313 64 463 79 33 4 78 8 100 11 93 10 223 19 450 30 44 2 273 7 510 10
392 6 433 8 472 25 144 64 184 250 78 367 -76 85 -73 85 -586 78 -244 -3 -480
-8 -524 -10 -154 -6 -445 -28 -550 -41 -87 -10 -102 -12 -150 -19 -98 -13
-221 -37 -323 -61 -57 -14 -105 -24 -106 -22 -5 7 -93 115 -116 142 -54 62
-269 276 -340 338 -60 52 -189 156 -300 241 -45 35 -167 134 -183 148 -18 16
-17 21 12 140 30 122 36 150 47 219 3 19 9 60 14 90 5 30 14 100 20 155 6 55
13 116 15 135 31 266 55 1370 32 1478 -13 61 -62 122 -126 155 -61 30 -110 34
-181 12z"/>
<path d="M10340 13767 c-52 -17 -135 -104 -145 -152 -4 -22 -9 -200 -10 -395
-2 -340 -12 -724 -20 -820 -2 -25 -6 -85 -9 -135 -4 -49 -8 -101 -11 -115 -2
-14 -7 -56 -10 -95 -9 -98 -41 -311 -50 -324 -1 -3 -6 -22 -9 -41 -8 -55 -55
-208 -87 -290 -124 -310 -332 -488 -694 -594 -151 -44 -367 -85 -535 -101 -25
-3 -65 -7 -90 -9 -81 -9 -273 -23 -455 -31 -55 -3 -288 -7 -518 -10 -468 -5
-469 -5 -541 -80 -120 -123 -63 -329 108 -385 31 -10 131 -11 475 -6 240 4
468 8 506 10 137 7 311 17 350 21 22 2 65 7 95 9 95 9 164 17 190 21 14 2 48
7 76 10 65 7 251 41 305 55 23 6 47 9 54 6 8 -3 37 -40 66 -83 52 -78 168
-233 192 -257 6 -7 30 -35 52 -61 136 -165 434 -425 652 -569 36 -24 41 -31
33 -50 -7 -19 -27 -120 -44 -221 -10 -59 -25 -171 -32 -240 -3 -38 -8 -79 -10
-90 -2 -11 -6 -69 -10 -130 -3 -60 -7 -121 -10 -135 -8 -53 -18 -501 -18 -860
0 -364 0 -376 21 -415 75 -142 250 -177 367 -74 78 69 79 74 81 489 2 325 11
683 20 825 5 89 16 229 20 265 2 19 7 60 10 90 9 81 15 132 20 160 3 14 7 41
10 60 14 93 51 245 82 338 118 354 318 552 673 669 86 29 286 77 357 87 221
31 291 39 443 51 264 20 417 25 849 30 259 3 422 9 449 16 55 15 125 83 145
142 39 116 -11 239 -122 294 -33 16 -70 18 -406 18 -318 -1 -659 -9 -814 -20
-198 -14 -236 -17 -252 -20 -10 -2 -51 -6 -91 -9 -40 -4 -84 -8 -98 -10 -14
-2 -47 -7 -73 -11 -27 -4 -57 -8 -67 -10 -9 -2 -35 -6 -56 -9 -60 -10 -173
-34 -239 -51 l-60 -16 -38 43 c-21 24 -50 59 -65 78 -28 37 -279 290 -347 351
-22 20 -121 100 -220 178 -99 79 -200 159 -224 179 -24 21 -50 41 -58 45 -14
9 -14 13 3 77 21 81 44 179 48 204 37 230 46 291 51 351 3 39 8 81 10 95 3 14
7 66 11 115 3 50 7 110 9 135 10 112 19 537 19 875 0 361 0 371 -22 411 -56
107 -177 157 -292 121z"/>
<path d="M17430 13771 c-48 -15 -88 -40 -114 -72 -58 -68 -57 -66 -61 -554 -3
-457 -10 -660 -31 -910 -11 -142 -35 -344 -49 -416 -2 -9 -6 -34 -9 -54 -11
-65 -46 -196 -78 -290 -133 -388 -359 -580 -817 -695 -64 -16 -136 -32 -161
-35 -24 -4 -47 -8 -50 -10 -3 -2 -34 -6 -70 -10 -36 -3 -72 -8 -80 -10 -8 -2
-40 -7 -70 -10 -30 -3 -75 -7 -100 -10 -86 -10 -208 -17 -470 -30 -47 -3 -273
-7 -503 -10 -391 -4 -421 -6 -464 -25 -85 -37 -136 -118 -136 -215 -1 -94 47
-168 138 -215 39 -19 53 -20 485 -15 245 3 483 7 530 10 201 10 288 16 335 20
28 2 82 7 120 10 39 3 81 8 95 10 14 2 52 7 85 10 79 8 218 31 332 55 51 11
96 20 101 20 4 0 16 -15 27 -32 10 -18 21 -35 25 -38 3 -3 21 -27 40 -55 51
-77 157 -212 226 -291 101 -114 182 -193 324 -318 29 -25 208 -161 317 -241
37 -27 40 -32 32 -60 -4 -16 -10 -41 -13 -55 -2 -14 -11 -63 -20 -110 -8 -47
-18 -105 -21 -130 -3 -25 -8 -56 -10 -70 -2 -14 -7 -56 -11 -95 -4 -38 -8 -83
-10 -100 -1 -16 -6 -73 -9 -125 -4 -52 -9 -115 -10 -140 -10 -128 -18 -545
-18 -855 -1 -292 2 -356 15 -385 63 -145 231 -192 360 -101 34 24 76 83 86
121 3 8 6 157 7 331 3 328 13 771 20 849 2 25 6 86 10 135 9 133 22 271 30
315 2 8 6 44 10 80 4 36 8 67 10 70 2 3 6 25 10 50 4 25 8 47 10 51 2 3 7 21
10 40 21 116 93 322 151 425 55 99 143 203 224 263 19 14 37 29 40 32 11 13
162 90 234 119 70 28 263 83 331 94 17 3 41 8 55 11 53 10 89 15 210 30 210
26 233 28 450 40 58 3 137 8 175 10 39 3 259 7 490 10 231 3 433 8 449 11 135
28 217 207 151 333 -21 42 -79 93 -128 114 -39 17 -71 18 -497 12 -250 -3
-482 -7 -515 -9 -148 -9 -284 -17 -330 -21 -27 -3 -79 -7 -115 -10 -36 -3 -83
-7 -105 -10 -22 -3 -62 -7 -90 -11 -76 -9 -289 -45 -345 -59 -14 -3 -38 -9
-54 -11 -16 -3 -40 -10 -53 -15 -37 -14 -37 -14 -96 59 -189 230 -388 413
-767 705 -9 7 -43 34 -75 61 -33 28 -61 50 -62 51 -1 0 9 43 23 95 20 80 45
206 69 346 13 83 30 237 40 374 4 47 8 105 10 130 11 129 19 451 19 835 1 422
1 431 -20 470 -28 52 -70 94 -114 113 -41 18 -124 25 -160 13z"/>
<path d="M1915 12354 c-176 -31 -307 -115 -403 -258 -73 -109 -97 -187 -97
-316 0 -140 8 -178 55 -276 81 -167 244 -295 422 -330 50 -10 179 -11 213 -3
17 5 44 10 60 13 17 3 67 24 112 46 200 99 325 298 327 520 1 107 -5 145 -34
223 -100 266 -381 430 -655 381z"/>
<path d="M9058 12365 c-2 -2 -28 -5 -58 -8 -172 -16 -356 -142 -447 -307 -89
-160 -94 -375 -13 -546 211 -441 836 -453 1070 -20 137 256 60 594 -174 761
-59 42 -157 91 -200 99 -59 12 -85 16 -128 19 -27 2 -49 3 -50 2z"/>
<path d="M16072 12358 c-405 -52 -645 -512 -454 -868 107 -198 303 -321 516
-323 185 -2 310 48 436 173 120 119 180 261 180 425 0 362 -317 639 -678 593z"/>
<path d="M3267 6693 c-56 -21 -100 -61 -129 -117 -21 -39 -22 -55 -24 -371 -2
-322 -10 -689 -19 -830 -8 -133 -16 -253 -20 -281 -2 -16 -6 -63 -10 -104 -4
-41 -8 -77 -10 -80 -2 -3 -6 -34 -10 -70 -10 -96 -51 -281 -87 -395 -114 -365
-314 -570 -669 -688 -76 -26 -208 -61 -264 -71 -16 -3 -41 -8 -55 -11 -14 -3
-45 -8 -70 -11 -25 -3 -47 -8 -50 -9 -3 -2 -37 -6 -75 -10 -39 -3 -77 -8 -85
-10 -8 -2 -51 -7 -95 -11 -44 -3 -96 -7 -115 -9 -32 -4 -193 -13 -345 -21 -33
-1 -249 -5 -480 -8 -231 -3 -436 -8 -455 -11 -49 -8 -125 -67 -152 -117 -29
-56 -31 -166 -4 -217 24 -45 67 -86 113 -108 35 -16 70 -18 393 -18 422 1 741
11 970 30 186 16 296 28 371 40 14 3 43 7 65 10 21 2 62 9 89 15 28 5 64 12
80 15 17 2 46 9 65 15 19 5 40 10 47 10 6 0 42 -44 79 -97 155 -226 338 -433
534 -605 81 -70 305 -242 358 -273 36 -22 37 -27 18 -110 -8 -33 -17 -78 -20
-100 -4 -22 -11 -65 -16 -95 -16 -90 -19 -112 -26 -185 -3 -38 -8 -77 -9 -85
-2 -8 -6 -60 -10 -115 -4 -55 -9 -120 -10 -145 -12 -146 -19 -458 -19 -835 -1
-422 -1 -431 21 -470 46 -87 110 -127 207 -131 96 -4 174 43 217 133 21 43 21
60 25 506 2 254 5 505 8 557 3 52 8 142 11 200 3 58 7 121 10 140 2 19 7 69
10 110 4 41 8 86 10 100 2 14 7 50 10 80 9 72 42 249 62 325 8 33 16 65 18 70
1 6 4 17 7 25 3 8 16 44 28 80 69 201 195 375 345 477 197 133 509 227 895
268 319 34 541 44 1079 50 l414 4 54 27 c43 20 63 38 90 82 31 49 36 63 36
121 1 96 -35 157 -128 217 -28 18 -51 19 -415 18 -448 0 -883 -16 -1070 -39
-19 -2 -60 -7 -90 -10 -61 -6 -122 -14 -160 -20 -147 -22 -242 -40 -328 -61
l-104 -25 -21 28 c-132 170 -365 400 -569 563 -84 67 -160 127 -168 133 -164
131 -200 161 -200 168 0 4 11 49 25 101 13 51 27 109 30 128 3 19 10 54 16 78
9 41 13 69 24 157 3 22 7 56 10 75 2 19 7 60 10 90 3 30 8 71 10 90 2 19 7 80
11 135 4 55 8 118 9 140 9 128 19 576 19 865 0 364 -1 370 -59 438 -59 70
-169 98 -258 65z"/>
<path d="M10360 6701 c-73 -22 -128 -70 -156 -136 -15 -35 -17 -87 -19 -420
-2 -325 -10 -653 -20 -800 -9 -142 -17 -254 -20 -280 -2 -16 -7 -61 -11 -100
-3 -38 -7 -73 -9 -76 -2 -3 -6 -27 -10 -55 -17 -146 -70 -363 -120 -490 -133
-339 -348 -515 -760 -624 -119 -31 -125 -33 -260 -55 -151 -24 -154 -25 -320
-41 -120 -11 -142 -13 -250 -19 -222 -13 -298 -15 -709 -20 -469 -6 -471 -6
-541 -80 -105 -112 -76 -281 64 -368 36 -22 40 -22 396 -22 327 1 736 10 825
19 19 2 81 7 137 11 56 3 113 8 125 10 13 2 55 6 93 10 39 3 85 8 103 11 17 2
49 6 70 9 57 8 144 24 252 46 103 21 95 26 189 -107 181 -256 364 -456 568
-622 102 -83 175 -139 248 -190 44 -30 82 -57 84 -58 3 -3 -3 -39 -25 -149 -2
-11 -9 -47 -14 -80 -6 -33 -12 -71 -14 -85 -7 -34 -15 -103 -22 -180 -3 -36
-7 -76 -9 -89 -3 -14 -7 -68 -10 -120 -4 -53 -8 -114 -10 -136 -10 -101 -19
-514 -19 -860 0 -371 0 -381 21 -421 28 -53 91 -107 142 -122 114 -35 235 20
284 128 19 42 20 67 23 425 2 359 9 686 19 820 2 33 7 96 10 140 3 44 7 96 10
115 2 19 7 60 10 90 20 176 48 332 85 468 121 448 348 669 812 791 62 17 140
35 173 41 33 5 69 12 80 14 43 8 173 26 225 31 30 3 75 7 100 10 211 24 489
35 977 40 452 4 457 5 528 81 118 125 60 329 -109 384 -64 21 -979 4 -1311
-25 -222 -19 -268 -23 -315 -30 -19 -3 -54 -8 -76 -11 -23 -3 -52 -7 -65 -9
-13 -3 -39 -7 -59 -10 -41 -6 -58 -9 -120 -24 -25 -5 -58 -12 -73 -15 -16 -3
-45 -10 -65 -17 -40 -13 -33 -18 -132 102 -112 137 -352 361 -595 554 -137
110 -256 205 -263 211 -12 9 -12 18 1 65 19 65 55 225 63 277 2 20 9 60 14 87
5 28 11 73 14 100 3 28 10 93 16 145 30 258 43 618 44 1150 1 388 0 396 -21
436 -54 101 -172 155 -273 125z"/>
<path d="M17420 6698 c-52 -15 -114 -71 -140 -125 -22 -47 -22 -56 -26 -498
-4 -536 -13 -765 -39 -1015 -2 -19 -7 -63 -10 -97 -3 -34 -8 -70 -10 -81 -2
-11 -7 -42 -11 -69 -3 -26 -8 -57 -10 -68 -2 -11 -7 -36 -10 -55 -12 -68 -64
-260 -88 -322 -81 -216 -201 -374 -362 -480 -88 -57 -288 -144 -377 -162 -12
-3 -51 -12 -87 -21 -36 -9 -74 -18 -85 -20 -374 -70 -653 -90 -1389 -100 -388
-5 -433 -7 -470 -24 -145 -66 -185 -245 -84 -372 7 -9 33 -29 58 -45 l45 -29
370 0 c318 1 627 8 810 19 99 6 245 17 272 21 16 2 57 6 92 10 135 13 280 36
420 65 51 11 97 18 101 15 4 -3 44 -57 89 -120 164 -231 313 -400 491 -555 41
-36 77 -68 80 -71 8 -9 209 -160 276 -207 l61 -43 -13 -57 c-16 -68 -52 -279
-59 -342 -5 -49 -14 -124 -20 -180 -30 -260 -54 -1382 -32 -1488 20 -98 115
-174 221 -178 97 -4 172 41 219 131 20 38 21 55 23 365 2 312 11 746 19 840 2
25 6 92 10 150 3 58 8 119 10 135 2 17 7 57 10 90 3 33 8 71 10 85 2 14 6 48
10 75 9 68 40 231 56 285 7 25 13 50 15 56 8 40 62 182 96 252 41 83 117 194
162 235 92 85 123 108 216 160 146 81 407 158 650 192 25 3 56 8 70 10 14 2
54 6 90 10 36 3 83 8 105 11 86 9 296 22 465 29 58 3 284 7 503 10 272 3 410
8 439 17 47 14 107 67 134 118 13 24 19 57 19 105 0 59 -5 77 -28 116 -30 51
-81 90 -141 109 -65 21 -1032 2 -1311 -25 -27 -2 -84 -7 -125 -10 -41 -3 -88
-8 -105 -10 -16 -2 -52 -7 -80 -10 -104 -12 -310 -49 -424 -76 -46 -11 -84
-19 -85 -17 -2 2 -9 13 -17 25 -57 84 -290 327 -434 452 -55 47 -183 151 -284
231 -101 80 -192 152 -202 160 -18 15 -18 17 2 95 46 177 65 283 94 519 3 22
7 71 11 110 3 39 7 82 9 94 2 13 7 79 10 145 4 67 9 156 11 197 2 41 6 287 9
545 7 496 4 527 -39 590 -27 40 -42 52 -101 80 -53 26 -105 30 -165 13z"/>
<path d="M1905 5283 c-283 -48 -495 -299 -495 -585 0 -105 15 -168 62 -268 48
-99 147 -206 239 -257 146 -82 331 -101 482 -49 136 46 237 123 310 235 79
122 109 225 103 361 -17 364 -340 624 -701 563z"/>
<path d="M9038 5295 c-2 -2 -25 -6 -51 -9 -229 -31 -429 -215 -491 -453 -21
-79 -14 -241 13 -322 44 -133 125 -239 240 -315 244 -162 573 -123 771 91 108
118 162 265 156 427 -4 97 -5 105 -31 179 -68 200 -266 365 -470 392 -51 7
-134 13 -137 10z"/>
<path d="M16055 5285 c-245 -43 -433 -221 -491 -466 -3 -13 -7 -60 -9 -104
-15 -327 242 -606 571 -620 283 -12 537 180 609 460 21 79 17 211 -7 299 -80
291 -378 481 -673 431z"/>
</g>
</svg>
